<svg xmlns="http://www.w3.org/2000/svg" width="2180" height="138" viewBox="0 0 2180 138">
  <g id="Group_43358" data-name="Group 43358" transform="translate(2262 -8762)">
    <g id="Group_43352" data-name="Group 43352" transform="translate(889 -40)">
      <g id="Group_41560" data-name="Group 41560" transform="translate(-2082.045 8802)">
        <ellipse id="Ellipse_295" data-name="Ellipse 295" cx="52" cy="51.5" rx="52" ry="51.5" transform="translate(0.045 0)" fill="#fff"/>
        <g id="Group_41579" data-name="Group 41579" transform="translate(17.917 35.84) rotate(-21)">
          <g id="Group_14" data-name="Group 14" transform="translate(0 0)">
            <path id="Path_4487" data-name="Path 4487" d="M52.272,12.179a.836.836,0,0,1,.028.221V23.957a.845.845,0,0,1-.424.732l-9.7,5.584v11.07a.839.839,0,0,1-.422.73L21.507,53.731a1.107,1.107,0,0,1-.146.061c-.02.007-.037.017-.057.022a.855.855,0,0,1-.432,0,.64.64,0,0,1-.066-.026.99.99,0,0,1-.14-.057L.424,42.073A.839.839,0,0,1,0,41.343V6.671a.915.915,0,0,1,.028-.221C.035,6.427.05,6.4.059,6.379a.962.962,0,0,1,.052-.131A.9.9,0,0,1,.17,6.173a.807.807,0,0,1,.074-.1.6.6,0,0,1,.083-.066A.955.955,0,0,1,.419,5.94h0L10.544.113a.843.843,0,0,1,.843,0L21.51,5.94h0c.033.022.061.048.092.072a.828.828,0,0,1,.083.063c.028.03.05.065.076.1s.042.048.057.074a1.1,1.1,0,0,1,.055.131c.009.024.022.048.028.072a.843.843,0,0,1,.031.221V28.327l8.434-4.857V12.4a.838.838,0,0,1,.031-.221c.007-.024.02-.046.028-.07a1.045,1.045,0,0,1,.055-.131c.018-.028.039-.05.057-.076a1.153,1.153,0,0,1,.076-.1.6.6,0,0,1,.083-.063.568.568,0,0,1,.092-.072h0L40.914,5.841a.842.842,0,0,1,.843,0L51.879,11.67a.736.736,0,0,1,.094.07c.026.022.057.042.081.063a.806.806,0,0,1,.076.1.457.457,0,0,1,.057.076.638.638,0,0,1,.055.131.486.486,0,0,1,.031.07ZM50.615,23.47V13.859L47.072,15.9l-4.894,2.817v9.612l8.436-4.857ZM40.492,40.854V31.238l-4.816,2.75L21.931,41.833V51.54L40.492,40.854ZM1.686,8.13V40.854L20.245,51.538V41.833l-9.7-5.486,0,0,0,0a.661.661,0,0,1-.089-.07.713.713,0,0,1-.081-.061l0,0a.986.986,0,0,1-.07-.089c-.022-.028-.046-.053-.063-.081v0a.744.744,0,0,1-.046-.1.722.722,0,0,1-.039-.094v0a.758.758,0,0,1-.017-.122c0-.033-.011-.063-.011-.1V12.987L5.228,10.168,1.686,8.13Zm9.282-6.314L2.533,6.671l8.43,4.855L19.4,6.669,10.963,1.816Zm4.385,30.3L20.245,29.3V8.13L16.7,10.17l-4.894,2.817V34.154l3.544-2.04ZM41.335,7.545,32.9,12.4l8.432,4.855L49.767,12.4,41.335,7.545Zm-.843,11.171L35.6,15.9l-3.542-2.04V23.47l4.892,2.815,3.545,2.042V18.716ZM21.086,40.374l12.37-7.063,6.183-3.527-8.426-4.853-9.7,5.587-8.843,5.091Z" fill="#db1f0d" fill-rule="evenodd"/>
          </g>
        </g>
      </g>
      <g id="Group_41559" data-name="Group 41559" transform="translate(-2186 8802)">
        <ellipse id="Ellipse_296" data-name="Ellipse 296" cx="52" cy="51.5" rx="52" ry="51.5" transform="translate(0 0)" fill="#563d7c"/>
        <path id="Path_12597" data-name="Path 12597" d="M9.766,17.977V7.589H18.91a14.238,14.238,0,0,1,2.519.218,6.294,6.294,0,0,1,2.146.778,4.142,4.142,0,0,1,1.493,1.555,5.164,5.164,0,0,1,.56,2.55,4.7,4.7,0,0,1-1.68,4.043,7.02,7.02,0,0,1-4.292,1.244ZM0,0V44.413H21.522a22.707,22.707,0,0,0,5.816-.746,15.555,15.555,0,0,0,5.038-2.3,11.337,11.337,0,0,0,3.514-4.012A12.225,12.225,0,0,0,37.2,31.537a12.307,12.307,0,0,0-2.022-7.122,10.675,10.675,0,0,0-6.127-4.137,11.067,11.067,0,0,0,4.51-3.67,9.727,9.727,0,0,0,1.524-5.6,11.913,11.913,0,0,0-1.026-5.225,8.534,8.534,0,0,0-2.893-3.39A12.488,12.488,0,0,0,26.685.56,27.659,27.659,0,0,0,20.9,0ZM9.766,36.824V24.632H20.4a8.23,8.23,0,0,1,5.1,1.462q1.928,1.462,1.928,4.883a6.1,6.1,0,0,1-.591,2.861,4.694,4.694,0,0,1-1.586,1.773,6.717,6.717,0,0,1-2.3.933,13.037,13.037,0,0,1-2.737.28Z" transform="matrix(0.966, -0.259, 0.259, 0.966, 28.265, 33.374)" fill="#fff"/>
      </g>
      <g id="Group_41565" data-name="Group 41565" transform="translate(-1563.023 8802)">
        <ellipse id="Ellipse_301" data-name="Ellipse 301" cx="52" cy="51.5" rx="52" ry="51.5" transform="translate(0.023 0)" fill="#fff"/>
        <path id="Path_12598" data-name="Path 12598" d="M26.646,0a26.647,26.647,0,0,0-8.424,51.927c1.331.247,1.82-.578,1.82-1.282,0-.636-.023-2.734-.036-4.961-7.412,1.612-8.977-3.145-8.977-3.145-1.212-3.079-2.958-3.9-2.958-3.9-2.418-1.654.183-1.62.183-1.62a5.6,5.6,0,0,1,4.084,2.747c2.375,4.072,6.232,2.894,7.752,2.213a5.675,5.675,0,0,1,1.693-3.562c-5.919-.674-12.139-2.96-12.139-13.17A10.3,10.3,0,0,1,12.39,18.1a9.577,9.577,0,0,1,.257-7.051s2.237-.717,7.329,2.73a25.257,25.257,0,0,1,13.344,0c5.086-3.447,7.321-2.73,7.321-2.73A9.565,9.565,0,0,1,40.9,18.1a10.29,10.29,0,0,1,2.741,7.15c0,10.234-6.234,12.487-12.166,13.147a6.368,6.368,0,0,1,1.807,4.935c0,3.566-.03,6.434-.03,7.312,0,.708.478,1.539,1.829,1.278A26.647,26.647,0,0,0,26.646,0ZM19.857,43.152c.038.213-.183.434-.5.491s-.6-.074-.634-.287.185-.44.493-.5.6.074.638.294Zm-2.031.344c.009.219-.247.4-.563.406s-.576-.172-.58-.387.251-.4.568-.408.576.17.576.389Zm-2.179-.159c-.064.208-.364.3-.666.215s-.5-.336-.438-.547.364-.308.668-.215.5.334.436.546Zm-1.986-.861c-.145.162-.457.117-.685-.1a.51.51,0,0,1-.151-.68c.147-.161.461-.117.691.1s.3.521.145.68Zm-1.44-1.482c-.164.113-.43.006-.6-.23s-.162-.523,0-.636.427-.011.6.223.164.525,0,.642Zm-1.05-1.535c-.128.117-.374.064-.544-.123a.4.4,0,0,1-.077-.553c.13-.119.37-.064.546.121s.206.436.074.555Zm-1.08-1.2c-.057.132-.266.172-.455.081s-.3-.268-.24-.4.266-.174.459-.083.3.268.236.4Z" transform="matrix(0.966, 0.259, -0.259, 0.966, 32.966, 19.604)" fill="#141312" fill-rule="evenodd"/>
      </g>
      <g id="Group_41564" data-name="Group 41564" transform="translate(-1666.978 8802)">
        <circle id="Ellipse_299" data-name="Ellipse 299" cx="52" cy="52" r="52" transform="translate(-0.022 0)" fill="#fff"/>
        <g id="Group_41576" data-name="Group 41576" transform="matrix(0.966, -0.259, 0.259, 0.966, 19.093, 26.617)">
          <path id="Path_4463" data-name="Path 4463" d="M0,0H49.338l-4.41,50.438-20.12,5.789L4.135,50.438Z" transform="translate(0 13.754)" fill="#313130" fill-rule="evenodd"/>
          <path id="Path_4464" data-name="Path 4464" d="M0,0V46.463l16.62-4.782L20.264,0Z" transform="translate(24.821 18.635)" fill="#313130" fill-rule="evenodd"/>
          <path id="Path_4465" data-name="Path 4465" d="M7.43,0H0V9.51L6.6,8.27Z" transform="translate(24.821 42.693)" fill="#313130" fill-rule="evenodd"/>
          <path id="Path_4466" data-name="Path 4466" d="M0,0,.826,6.073l14.884-.009L1.1,12.4,1.93,18.19H16V0Z" transform="translate(8.821 24.503)" fill="#313130" fill-rule="evenodd"/>
          <path id="Path_4467" data-name="Path 4467" d="M6.615,4.687,6.064,0H0L.826,9.648l12.954,3.581.013-.005V6.2Z" transform="translate(11.027 46.004)" fill="#313130" fill-rule="evenodd"/>
          <path id="Path_4468" data-name="Path 4468" d="M14.045,11.889H.77l14.411-5.9V0H0V18.191H7.43L6.6,26.46,0,27.7v7.025l12.39-3.854Z" transform="translate(24.821 24.503)" fill="#313130" fill-rule="evenodd"/>
          <path id="Path_4469" data-name="Path 4469" d="M0,0V9.438H7.772V6.385H3.331V3.2H7.772V0Z" transform="translate(10.021 0)" fill="#313130" fill-rule="evenodd"/>
          <path id="Path_4470" data-name="Path 4470" d="M0,0V2.553L2.707,6.385H.21V9.438H7.7V6.527l-2.5-3.2H7.7V0Z" transform="translate(20.914 0)" fill="#313130" fill-rule="evenodd"/>
          <path id="Path_4471" data-name="Path 4471" d="M0,0V2.553L2.707,6.385H.209V9.438H7.7V6.527l-2.5-3.2H7.7V0Z" transform="translate(31.615 0)" fill="#313130" fill-rule="evenodd"/>
          <path id="Path_4472" data-name="Path 4472" d="M0,0H49.338l-4.41,50.438-20.12,5.789L4.135,50.438Z" transform="translate(0 13.754)" fill="#006eb1" fill-rule="evenodd"/>
          <path id="Path_4473" data-name="Path 4473" d="M0,0V46.463l16.62-4.782L20.264,0Z" transform="translate(24.821 18.635)" fill="#007dbd" fill-rule="evenodd"/>
          <path id="Path_4474" data-name="Path 4474" d="M7.43,0H0V9.508L6.6,8.269Z" transform="translate(24.821 42.695)" fill="#007aaf" fill-rule="evenodd"/>
          <path id="Path_4475" data-name="Path 4475" d="M0,0,.826,6.073l14.884-.009L1.1,12.4l.828,5.788H16V0Z" transform="translate(8.821 24.503)" fill="#e8e8e8" fill-rule="evenodd"/>
          <path id="Path_4476" data-name="Path 4476" d="M6.615,4.687,6.064,0H0L.826,9.648l12.954,3.581.013-.005V6.2Z" transform="translate(11.027 46.004)" fill="#ececec" fill-rule="evenodd"/>
          <path id="Path_4477" data-name="Path 4477" d="M14.045,11.889H.77l14.411-5.9V0H0V18.191H7.43L6.6,26.46,0,27.7v7.025l12.39-3.854Z" transform="translate(24.821 24.503)" fill="#fff" fill-rule="evenodd"/>
          <path id="Path_4478" data-name="Path 4478" d="M0,0V9.438H7.772V6.385H3.331V3.2H7.772V0Z" transform="translate(10.021 0)" fill="#111" fill-rule="evenodd"/>
          <path id="Path_4479" data-name="Path 4479" d="M0,0V2.553L2.707,6.385H.21V9.438H7.7V6.527l-2.5-3.2H7.7V0Z" transform="translate(20.914 0)" fill="#111" fill-rule="evenodd"/>
          <path id="Path_4480" data-name="Path 4480" d="M0,0V2.553L2.707,6.385H.209V9.438H7.7V6.527l-2.5-3.2H7.7V0Z" transform="translate(31.615 0)" fill="#111" fill-rule="evenodd"/>
        </g>
      </g>
      <g id="Group_41563" data-name="Group 41563" transform="translate(-1770.933 8802)">
        <circle id="Ellipse_300" data-name="Ellipse 300" cx="52" cy="52" r="52" transform="translate(-0.067 0)" fill="#fff"/>
        <g id="Group_41577" data-name="Group 41577" transform="translate(43.138 18.715) rotate(21)">
          <path id="Path_4481" data-name="Path 4481" d="M41.1,0H0L3.851,41.778l16.7,4.733,16.692-4.733Z" transform="translate(0 11.218)" fill="#e13506" fill-rule="evenodd"/>
          <path id="Path_4482" data-name="Path 4482" d="M0,0V39.57l13.521-3.833L16.814,0Z" transform="translate(20.549 14.621)" fill="#eb4a08" fill-rule="evenodd"/>
          <path id="Path_4483" data-name="Path 4483" d="M0,0H2.569V2.353h2.5V0H7.633V7.546H5.064V4.922h-2.5V7.546H0V0ZM19.795,0h.346l1.5,2.562L23.141,0h2.936V7.546H23.505V3.74h-.018l-1.831,2.7V6.49l-.016-.023-.014.023V6.444l-1.831-2.7V7.546H17.226V0h2.569ZM33.659,4.975V7.546H27.4V0H29.97V4.975ZM16.179,0V2.569H13.69V7.546H11.121V2.569H8.635V0h7.544Z" transform="translate(3.719 0)" fill="#111" fill-rule="evenodd"/>
          <path id="Path_4484" data-name="Path 4484" d="M25.8,0H0L1.339,15.643l.031-.1H19.036l-.576,6.617-5.635,1.625L7.1,22.138l-.344-4H1.567l.742,8,10.516,2.986,10.517-2.986,1.447-15.7H6.043L5.579,5.194H25.431Z" transform="translate(7.724 19.91)" fill="#e8e8e8" fill-rule="evenodd"/>
          <path id="Path_4485" data-name="Path 4485" d="M12.975,0H0V5.2H12.606L12.975,0ZM0,15.544H6.21l-.575,6.618L0,23.787v5.335l10.516-2.986,1.448-15.7H0Z" transform="translate(20.549 19.91)" fill="#fff" fill-rule="evenodd"/>
        </g>
      </g>
      <g id="Group_41561" data-name="Group 41561" transform="translate(-1978.09 8802)">
        <ellipse id="Ellipse_302" data-name="Ellipse 302" cx="51.5" cy="52" rx="51.5" ry="52" transform="translate(0.09 0)" fill="#fff"/>
        <g id="Group_41575" data-name="Group 41575" transform="matrix(0.966, 0.259, -0.259, 0.966, 36.365, 12.891)">
          <g id="Group_9" data-name="Group 9" transform="translate(0 0)">
            <path id="Path_4457" data-name="Path 4457" d="M48.852,0H0L4.578,49.661l19.849,5.627,19.842-5.627Z" transform="translate(0 13.477)" fill="#e79200" fill-rule="evenodd"/>
            <path id="Path_4458" data-name="Path 4458" d="M0,0V47.038l16.073-4.557L19.987,0Z" transform="translate(24.426 17.523)" fill="#f7b100" fill-rule="evenodd"/>
            <path id="Path_4459" data-name="Path 4459" d="M26.44,0H1.719L0,18.594l.037-.116h21l-.685,7.865-6.7,1.931-6.8-1.96-.409-4.76H.269l.883,9.512,12.5,3.55,12.5-3.55L27.875,12.4H5.591l.283-6.225H21.341l.228,3.563H27.8Z" transform="translate(10.773 23.617)" fill="#fff" fill-rule="evenodd"/>
            <g id="Group_7" data-name="Group 7" transform="translate(10.774 23.618)">
              <path id="Path_4460" data-name="Path 4460" d="M13.65,0H1.719L0,18.592l.035-.114H13.65V12.4h-7.2l.283-6.224H13.65V0ZM6.442,21.553H.267l.883,9.512,12.5,3.541V28.273l-6.8-1.961Z" transform="translate(0 0)" fill="#e8e8e8" fill-rule="evenodd"/>
            </g>
            <g id="Group_8" data-name="Group 8" transform="translate(15.328 0)">
              <path id="Path_4461" data-name="Path 4461" d="M4.344,6.152H0v3.12H7.457V0H4.344Z" transform="translate(0)" fill="#111" fill-rule="evenodd"/>
              <path id="Path_4462" data-name="Path 4462" d="M7.578,0H0V3.247c1.013,1.013,1.542,1.5,3.007,2.966L0,6.216V9.177H7.578V6.213L4.549,3.247H7.578Z" transform="translate(10.619 0.047)" fill="#111" fill-rule="evenodd"/>
            </g>
          </g>
        </g>
      </g>
      <g id="Group_43351" data-name="Group 43351" transform="translate(-1874.888 8802)">
        <g id="Group_41562" data-name="Group 41562" transform="translate(0 0)">
          <g id="Group_41374" data-name="Group 41374" transform="translate(0 0)">
            <circle id="Ellipse_298" data-name="Ellipse 298" cx="52" cy="52" r="52" transform="translate(-0.112 0)" fill="#db1f0d"/>
          </g>
        </g>
        <g id="Group_41578" data-name="Group 41578" transform="matrix(0.966, 0.259, -0.259, 0.966, 37.123, 21.824)">
          <g id="Group_14-2" data-name="Group 14" transform="translate(0 0)">
            <path id="Path_4487-2" data-name="Path 4487" d="M52.272,12.179a.836.836,0,0,1,.028.221V23.957a.845.845,0,0,1-.424.732l-9.7,5.584v11.07a.839.839,0,0,1-.422.73L21.507,53.731a1.107,1.107,0,0,1-.146.061c-.02.007-.037.017-.057.022a.855.855,0,0,1-.432,0,.64.64,0,0,1-.066-.026.99.99,0,0,1-.14-.057L.424,42.073A.839.839,0,0,1,0,41.343V6.671a.915.915,0,0,1,.028-.221C.035,6.427.05,6.4.059,6.379a.962.962,0,0,1,.052-.131A.9.9,0,0,1,.17,6.173a.807.807,0,0,1,.074-.1.6.6,0,0,1,.083-.066A.955.955,0,0,1,.419,5.94h0L10.544.113a.843.843,0,0,1,.843,0L21.51,5.94h0c.033.022.061.048.092.072a.828.828,0,0,1,.083.063c.028.03.05.065.076.1s.042.048.057.074a1.1,1.1,0,0,1,.055.131c.009.024.022.048.028.072a.843.843,0,0,1,.031.221V28.327l8.434-4.857V12.4a.838.838,0,0,1,.031-.221c.007-.024.02-.046.028-.07a1.045,1.045,0,0,1,.055-.131c.018-.028.039-.05.057-.076a1.153,1.153,0,0,1,.076-.1.6.6,0,0,1,.083-.063.568.568,0,0,1,.092-.072h0L40.914,5.841a.842.842,0,0,1,.843,0L51.879,11.67a.736.736,0,0,1,.094.07c.026.022.057.042.081.063a.806.806,0,0,1,.076.1.457.457,0,0,1,.057.076.638.638,0,0,1,.055.131.486.486,0,0,1,.031.07ZM50.615,23.47V13.859L47.072,15.9l-4.894,2.817v9.612l8.436-4.857ZM40.492,40.854V31.238l-4.816,2.75L21.931,41.833V51.54L40.492,40.854ZM1.686,8.13V40.854L20.245,51.538V41.833l-9.7-5.486,0,0,0,0a.661.661,0,0,1-.089-.07.713.713,0,0,1-.081-.061l0,0a.986.986,0,0,1-.07-.089c-.022-.028-.046-.053-.063-.081v0a.744.744,0,0,1-.046-.1.722.722,0,0,1-.039-.094v0a.758.758,0,0,1-.017-.122c0-.033-.011-.063-.011-.1V12.987L5.228,10.168,1.686,8.13Zm9.282-6.314L2.533,6.671l8.43,4.855L19.4,6.669,10.963,1.816Zm4.385,30.3L20.245,29.3V8.13L16.7,10.17l-4.894,2.817V34.154l3.544-2.04ZM41.335,7.545,32.9,12.4l8.432,4.855L49.767,12.4,41.335,7.545Zm-.843,11.171L35.6,15.9l-3.542-2.04V23.47l4.892,2.815,3.545,2.042V18.716ZM21.086,40.374l12.37-7.063,6.183-3.527-8.426-4.853-9.7,5.587-8.843,5.091Z" fill="#fff" fill-rule="evenodd"/>
          </g>
        </g>
      </g>
    </g>
    <g id="Group_43357" data-name="Group 43357" transform="translate(1616 -40)">
      <g id="Group_41560-2" data-name="Group 41560" transform="translate(-2116.168 8802)">
        <ellipse id="Ellipse_295-2" data-name="Ellipse 295" cx="35" cy="34.5" rx="35" ry="34.5" transform="translate(0.168 0)" fill="#fff"/>
        <g id="Group_41579-2" data-name="Group 41579" transform="translate(12 24.065) rotate(-21)">
          <g id="Group_14-3" data-name="Group 14" transform="translate(0 0)">
            <path id="Path_4487-3" data-name="Path 4487" d="M35.1,8.178a.561.561,0,0,1,.019.148v7.76a.567.567,0,0,1-.284.491l-6.512,3.75V27.76a.563.563,0,0,1-.283.49l-13.6,7.828a.743.743,0,0,1-.1.041c-.013,0-.025.012-.038.015a.574.574,0,0,1-.29,0,.43.43,0,0,1-.044-.018.664.664,0,0,1-.094-.038L.285,28.25A.563.563,0,0,1,0,27.76V4.48a.615.615,0,0,1,.019-.148c0-.016.015-.032.021-.048A.646.646,0,0,1,.075,4.2a.6.6,0,0,1,.04-.05.542.542,0,0,1,.05-.064A.406.406,0,0,1,.22,4.037a.641.641,0,0,1,.062-.048h0L7.08.076a.566.566,0,0,1,.566,0l6.8,3.912h0c.022.015.041.032.062.048a.556.556,0,0,1,.056.043c.019.02.034.044.051.066s.028.032.038.05a.739.739,0,0,1,.037.088c.006.016.015.032.019.048a.566.566,0,0,1,.021.148V19.021l5.663-3.261V8.326a.563.563,0,0,1,.021-.148c0-.016.013-.031.019-.047a.7.7,0,0,1,.037-.088c.012-.019.026-.034.038-.051a.774.774,0,0,1,.051-.064.4.4,0,0,1,.056-.043.382.382,0,0,1,.062-.048h0l6.8-3.914a.566.566,0,0,1,.566,0l6.8,3.914a.494.494,0,0,1,.063.047c.018.015.038.028.054.043A.541.541,0,0,1,35,7.992a.307.307,0,0,1,.038.051.428.428,0,0,1,.037.088.326.326,0,0,1,.02.047Zm-1.113,7.581V9.306l-2.378,1.37-3.286,1.892v6.454l5.665-3.261Zm-6.8,11.673V20.975l-3.233,1.846-9.23,5.267v6.518l12.463-7.175ZM1.132,5.459V27.432l12.462,7.174V28.089L7.083,24.405v0h0a.443.443,0,0,1-.06-.047.479.479,0,0,1-.054-.041v0a.663.663,0,0,1-.047-.06c-.015-.019-.031-.035-.042-.054v0a.5.5,0,0,1-.031-.07.485.485,0,0,1-.026-.063h0a.509.509,0,0,1-.012-.082c0-.022-.007-.042-.007-.064V8.72L3.511,6.827,1.132,5.459ZM7.364,1.22,1.7,4.48l5.66,3.26,5.663-3.261L7.361,1.22Zm2.945,20.344,3.285-1.89V5.459l-2.379,1.37L7.929,8.72V22.933l2.38-1.37Zm17.446-16.5-5.662,3.26,5.662,3.26,5.662-3.26-5.662-3.26Zm-.566,7.5L23.9,10.675l-2.379-1.37v6.454l3.285,1.89,2.38,1.371V12.567ZM14.158,27.109l8.306-4.742L26.616,20,20.958,16.74l-6.515,3.751L8.505,23.91Z" fill="#db1f0d" fill-rule="evenodd"/>
          </g>
        </g>
      </g>
      <g id="Group_41559-2" data-name="Group 41559" transform="translate(-2186 8802)">
        <ellipse id="Ellipse_296-2" data-name="Ellipse 296" cx="35" cy="34.5" rx="35" ry="34.5" transform="translate(0 0)" fill="#563d7c"/>
        <path id="Path_12597-2" data-name="Path 12597" d="M6.558,12.071V5.1H12.7a9.56,9.56,0,0,1,1.692.146,4.226,4.226,0,0,1,1.441.522,2.781,2.781,0,0,1,1,1.044,3.467,3.467,0,0,1,.376,1.712,3.155,3.155,0,0,1-1.128,2.715,4.713,4.713,0,0,1-2.882.835ZM0,0V29.822H14.451a15.247,15.247,0,0,0,3.905-.5,10.444,10.444,0,0,0,3.383-1.545,7.612,7.612,0,0,0,2.36-2.694,8.208,8.208,0,0,0,.877-3.905,8.263,8.263,0,0,0-1.357-4.782,7.168,7.168,0,0,0-4.114-2.778,7.431,7.431,0,0,0,3.028-2.464,6.531,6.531,0,0,0,1.023-3.759,8,8,0,0,0-.689-3.508,5.731,5.731,0,0,0-1.942-2.276A8.385,8.385,0,0,0,17.918.376,18.572,18.572,0,0,0,14.034,0ZM6.558,24.726V16.54H13.7a5.526,5.526,0,0,1,3.425.982A3.856,3.856,0,0,1,18.419,20.8a4.1,4.1,0,0,1-.4,1.921,3.152,3.152,0,0,1-1.065,1.19,4.51,4.51,0,0,1-1.545.627,8.754,8.754,0,0,1-1.838.188Z" transform="matrix(0.966, -0.259, 0.259, 0.966, 18.979, 22.41)" fill="#fff"/>
      </g>
      <g id="Group_41565-2" data-name="Group 41565" transform="translate(-1767.679 8802)">
        <ellipse id="Ellipse_301-2" data-name="Ellipse 301" cx="35" cy="34.5" rx="35" ry="34.5" transform="translate(-0.321 0)" fill="#fff"/>
        <path id="Path_12598-2" data-name="Path 12598" d="M17.892,0a17.892,17.892,0,0,0-5.657,34.867c.894.166,1.222-.388,1.222-.861,0-.427-.016-1.836-.024-3.331-4.977,1.082-6.028-2.112-6.028-2.112A4.737,4.737,0,0,0,5.42,25.947c-1.623-1.111.123-1.088.123-1.088A3.761,3.761,0,0,1,8.285,26.7,3.808,3.808,0,0,0,13.49,28.19,3.811,3.811,0,0,1,14.627,25.8c-3.975-.453-8.151-1.987-8.151-8.843a6.918,6.918,0,0,1,1.843-4.8A6.431,6.431,0,0,1,8.492,7.42s1.5-.481,4.921,1.833a16.959,16.959,0,0,1,8.96,0c3.415-2.314,4.916-1.833,4.916-1.833a6.422,6.422,0,0,1,.176,4.734,6.91,6.91,0,0,1,1.84,4.8c0,6.871-4.186,8.385-8.169,8.827A4.276,4.276,0,0,1,22.349,29.1c0,2.394-.02,4.32-.02,4.91,0,.475.321,1.034,1.228.858A17.893,17.893,0,0,0,17.892,0ZM13.333,28.975c.026.143-.123.291-.334.33s-.4-.05-.425-.193.124-.3.331-.334.4.05.428.2Zm-1.363.231c.006.147-.166.27-.378.273s-.387-.116-.39-.26.168-.27.381-.274.387.114.387.261ZM10.506,29.1c-.043.14-.244.2-.447.144s-.335-.226-.294-.367.244-.207.448-.144.334.224.293.367Zm-1.333-.578c-.1.108-.307.078-.46-.069s-.2-.35-.1-.457.31-.079.464.069.2.35.1.457Zm-.967-1c-.11.076-.288,0-.4-.154s-.108-.351,0-.427.287-.007.4.15.11.353,0,.431ZM7.5,26.5c-.086.078-.251.043-.365-.083a.272.272,0,0,1-.051-.371c.087-.08.248-.043.367.081s.138.293.05.373Zm-.725-.808c-.038.088-.178.116-.305.054s-.2-.18-.161-.268.178-.117.308-.056.2.18.158.27Z" transform="matrix(0.966, 0.259, -0.259, 0.966, 22.12, 13.164)" fill="#141312" fill-rule="evenodd"/>
      </g>
      <g id="Group_41564-2" data-name="Group 41564" transform="translate(-1837.511 8802)">
        <circle id="Ellipse_299-2" data-name="Ellipse 299" cx="35" cy="35" r="35" transform="translate(-0.489 0)" fill="#fff"/>
        <g id="Group_41576-2" data-name="Group 41576" transform="matrix(0.966, -0.259, 0.259, 0.966, 12.835, 17.873)">
          <path id="Path_4463-2" data-name="Path 4463" d="M0,0H33.128L30.167,33.867l-13.51,3.887L2.776,33.867Z" transform="translate(0 9.235)" fill="#313130" fill-rule="evenodd"/>
          <path id="Path_4464-2" data-name="Path 4464" d="M0,0V31.2l11.159-3.211L13.607,0Z" transform="translate(16.666 12.513)" fill="#313130" fill-rule="evenodd"/>
          <path id="Path_4465-2" data-name="Path 4465" d="M4.989,0H0V6.386l4.434-.832Z" transform="translate(16.666 28.667)" fill="#313130" fill-rule="evenodd"/>
          <path id="Path_4466-2" data-name="Path 4466" d="M0,0,.555,4.078l9.994-.006L.74,8.328,1.3,12.214h9.447V0Z" transform="translate(5.923 16.453)" fill="#313130" fill-rule="evenodd"/>
          <path id="Path_4467-2" data-name="Path 4467" d="M4.442,3.147,4.072,0H0L.555,6.478l8.7,2.4.009,0V4.164Z" transform="translate(7.404 30.89)" fill="#313130" fill-rule="evenodd"/>
          <path id="Path_4468-2" data-name="Path 4468" d="M9.431,7.983H.517l9.676-3.959V0H0V12.215H4.989l-.557,5.552L0,18.6v4.717l8.32-2.588Z" transform="translate(16.666 16.453)" fill="#313130" fill-rule="evenodd"/>
          <path id="Path_4469-2" data-name="Path 4469" d="M0,0V6.338H5.219V4.288H2.237V2.147H5.219V0Z" transform="translate(6.728 0)" fill="#313130" fill-rule="evenodd"/>
          <path id="Path_4470-2" data-name="Path 4470" d="M0,0V1.714L1.818,4.288H.141v2.05H5.173V4.383L3.5,2.237H5.173V0Z" transform="translate(14.043 0)" fill="#313130" fill-rule="evenodd"/>
          <path id="Path_4471-2" data-name="Path 4471" d="M0,0V1.714L1.817,4.288H.14v2.05H5.172V4.383L3.5,2.237H5.172V0Z" transform="translate(21.229 0)" fill="#313130" fill-rule="evenodd"/>
          <path id="Path_4472-2" data-name="Path 4472" d="M0,0H33.128L30.167,33.867l-13.51,3.887L2.776,33.867Z" transform="translate(0 9.235)" fill="#006eb1" fill-rule="evenodd"/>
          <path id="Path_4473-2" data-name="Path 4473" d="M0,0V31.2l11.159-3.211L13.607,0Z" transform="translate(16.666 12.513)" fill="#007dbd" fill-rule="evenodd"/>
          <path id="Path_4474-2" data-name="Path 4474" d="M4.989,0H0V6.384l4.434-.832Z" transform="translate(16.666 28.668)" fill="#007aaf" fill-rule="evenodd"/>
          <path id="Path_4475-2" data-name="Path 4475" d="M0,0,.555,4.078l9.994-.006L.74,8.328,1.3,12.215h9.447V0Z" transform="translate(5.923 16.453)" fill="#e8e8e8" fill-rule="evenodd"/>
          <path id="Path_4476-2" data-name="Path 4476" d="M4.442,3.147,4.072,0H0L.555,6.478l8.7,2.4.009,0V4.164Z" transform="translate(7.404 30.89)" fill="#ececec" fill-rule="evenodd"/>
          <path id="Path_4477-2" data-name="Path 4477" d="M9.431,7.983H.517l9.676-3.959V0H0V12.215H4.989l-.557,5.552L0,18.6v4.717l8.32-2.588Z" transform="translate(16.666 16.453)" fill="#fff" fill-rule="evenodd"/>
          <path id="Path_4478-2" data-name="Path 4478" d="M0,0V6.338H5.219V4.288H2.237V2.147H5.219V0Z" transform="translate(6.728 0)" fill="#111" fill-rule="evenodd"/>
          <path id="Path_4479-2" data-name="Path 4479" d="M0,0V1.714L1.818,4.288H.141v2.05H5.173V4.383L3.5,2.237H5.173V0Z" transform="translate(14.043 0)" fill="#111" fill-rule="evenodd"/>
          <path id="Path_4480-2" data-name="Path 4480" d="M0,0V1.714L1.817,4.288H.14v2.05H5.172V4.383L3.5,2.237H5.172V0Z" transform="translate(21.229 0)" fill="#111" fill-rule="evenodd"/>
        </g>
      </g>
      <g id="Group_41563-2" data-name="Group 41563" transform="translate(-1907.343 8802)">
        <ellipse id="Ellipse_300-2" data-name="Ellipse 300" cx="34.5" cy="35" rx="34.5" ry="35" transform="translate(0.343 0)" fill="#fff"/>
        <g id="Group_41577-2" data-name="Group 41577" transform="translate(29.011 12.567) rotate(21)">
          <path id="Path_4481-2" data-name="Path 4481" d="M27.6,0H0L2.586,28.052,13.8,31.23l11.208-3.178Z" transform="translate(0 7.533)" fill="#e13506" fill-rule="evenodd"/>
          <path id="Path_4482-2" data-name="Path 4482" d="M0,0V26.57L9.079,24,11.29,0Z" transform="translate(13.798 9.818)" fill="#eb4a08" fill-rule="evenodd"/>
          <path id="Path_4483-2" data-name="Path 4483" d="M0,0H1.725V1.58H3.4V0H5.126V5.067H3.4V3.305H1.725V5.067H0V0ZM13.292,0h.232L14.53,1.72,15.538,0h1.971V5.067H15.783V2.511H15.77L14.541,4.327v.031l-.011-.015-.009.015V4.327L13.292,2.511V5.067H11.567V0h1.725ZM22.6,3.341V5.067H18.4V0h1.725V3.341ZM10.863,0V1.725H9.192V5.067H7.467V1.725H5.8V0h5.066Z" transform="translate(2.497 0)" fill="#111" fill-rule="evenodd"/>
          <path id="Path_4484-2" data-name="Path 4484" d="M17.324,0H0L.9,10.5l.021-.066H12.782L12.4,14.881,8.611,15.972,4.77,14.865l-.231-2.689H1.052l.5,5.373,7.061,2.005,7.062-2.005L16.645,7H4.058L3.746,3.488h13.33Z" transform="translate(5.186 13.368)" fill="#e8e8e8" fill-rule="evenodd"/>
          <path id="Path_4485-2" data-name="Path 4485" d="M8.712,0H0V3.488H8.465L8.712,0ZM0,10.437H4.17l-.386,4.444L0,15.972v3.582l7.061-2L8.034,7H0Z" transform="translate(13.798 13.368)" fill="#fff" fill-rule="evenodd"/>
        </g>
      </g>
      <g id="Group_41561-2" data-name="Group 41561" transform="translate(-2046.336 8802)">
        <ellipse id="Ellipse_302-2" data-name="Ellipse 302" cx="34.5" cy="35" rx="34.5" ry="35" transform="translate(0.336 0)" fill="#fff"/>
        <g id="Group_41575-2" data-name="Group 41575" transform="matrix(0.966, 0.259, -0.259, 0.966, 24.358, 8.656)">
          <g id="Group_9-2" data-name="Group 9" transform="translate(0 0)">
            <path id="Path_4457-2" data-name="Path 4457" d="M32.8,0H0L3.074,33.346,16.4,37.124l13.323-3.778Z" transform="translate(0 9.05)" fill="#e79200" fill-rule="evenodd"/>
            <path id="Path_4458-2" data-name="Path 4458" d="M0,0V31.584l10.792-3.06L13.42,0Z" transform="translate(16.401 11.766)" fill="#f7b100" fill-rule="evenodd"/>
            <path id="Path_4459-2" data-name="Path 4459" d="M17.753,0H1.154L0,12.485l.025-.078h14.1l-.46,5.281-4.5,1.3L4.6,17.669l-.274-3.2H.181L.773,20.86l8.394,2.384,8.394-2.384L18.717,8.325H3.754l.19-4.18H14.33l.153,2.392h4.183Z" transform="translate(7.234 15.858)" fill="#fff" fill-rule="evenodd"/>
            <g id="Group_7-2" data-name="Group 7" transform="translate(7.235 15.859)">
              <path id="Path_4460-2" data-name="Path 4460" d="M9.166,0H1.154L0,12.484l.024-.077H9.166V8.324H4.331l.19-4.179H9.166V0ZM4.326,14.472H.179l.593,6.387,8.394,2.378V18.984L4.6,17.667Z" transform="translate(0 0)" fill="#e8e8e8" fill-rule="evenodd"/>
            </g>
            <g id="Group_8-2" data-name="Group 8" transform="translate(10.292 0)">
              <path id="Path_4461-2" data-name="Path 4461" d="M2.917,4.131H0V6.225H5.007V0H2.917Z" transform="translate(0 0)" fill="#111" fill-rule="evenodd"/>
              <path id="Path_4462-2" data-name="Path 4462" d="M5.089,0H0V2.18c.68.68,1.035,1.006,2.019,1.992L0,4.174V6.162H5.089V4.172L3.055,2.18H5.089Z" transform="translate(7.13 0.031)" fill="#111" fill-rule="evenodd"/>
            </g>
          </g>
        </g>
      </g>
      <g id="Group_43351-2" data-name="Group 43351" transform="translate(-1977.175 8802)">
        <g id="Group_41562-2" data-name="Group 41562" transform="translate(0 0)">
          <g id="Group_41374-2" data-name="Group 41374" transform="translate(0 0)">
            <circle id="Ellipse_298-2" data-name="Ellipse 298" cx="35" cy="35" r="35" transform="translate(0.175 0)" fill="#db1f0d"/>
          </g>
        </g>
        <g id="Group_41578-2" data-name="Group 41578" transform="matrix(0.966, 0.259, -0.259, 0.966, 25.002, 14.654)">
          <g id="Group_14-4" data-name="Group 14" transform="translate(0 0)">
            <path id="Path_4487-4" data-name="Path 4487" d="M35.1,8.178a.561.561,0,0,1,.019.148v7.76a.567.567,0,0,1-.284.491l-6.512,3.75V27.76a.563.563,0,0,1-.283.49l-13.6,7.828a.743.743,0,0,1-.1.041c-.013,0-.025.012-.038.015a.574.574,0,0,1-.29,0,.43.43,0,0,1-.044-.018.664.664,0,0,1-.094-.038L.285,28.25A.563.563,0,0,1,0,27.76V4.48a.615.615,0,0,1,.019-.148c0-.016.015-.032.021-.048A.646.646,0,0,1,.075,4.2a.6.6,0,0,1,.04-.05.542.542,0,0,1,.05-.064A.406.406,0,0,1,.22,4.037a.641.641,0,0,1,.062-.048h0L7.08.076a.566.566,0,0,1,.566,0l6.8,3.912h0c.022.015.041.032.062.048a.556.556,0,0,1,.056.043c.019.02.034.044.051.066s.028.032.038.05a.739.739,0,0,1,.037.088c.006.016.015.032.019.048a.566.566,0,0,1,.021.148V19.021l5.663-3.261V8.326a.563.563,0,0,1,.021-.148c0-.016.013-.031.019-.047a.7.7,0,0,1,.037-.088c.012-.019.026-.034.038-.051a.774.774,0,0,1,.051-.064.4.4,0,0,1,.056-.043.382.382,0,0,1,.062-.048h0l6.8-3.914a.566.566,0,0,1,.566,0l6.8,3.914a.494.494,0,0,1,.063.047c.018.015.038.028.054.043A.541.541,0,0,1,35,7.992a.307.307,0,0,1,.038.051.428.428,0,0,1,.037.088.326.326,0,0,1,.02.047Zm-1.113,7.581V9.306l-2.378,1.37-3.286,1.892v6.454l5.665-3.261Zm-6.8,11.673V20.975l-3.233,1.846-9.23,5.267v6.518l12.463-7.175ZM1.132,5.459V27.432l12.462,7.174V28.089L7.083,24.405v0h0a.443.443,0,0,1-.06-.047.479.479,0,0,1-.054-.041v0a.663.663,0,0,1-.047-.06c-.015-.019-.031-.035-.042-.054v0a.5.5,0,0,1-.031-.07.485.485,0,0,1-.026-.063h0a.509.509,0,0,1-.012-.082c0-.022-.007-.042-.007-.064V8.72L3.511,6.827,1.132,5.459ZM7.364,1.22,1.7,4.48l5.66,3.26,5.663-3.261L7.361,1.22Zm2.945,20.344,3.285-1.89V5.459l-2.379,1.37L7.929,8.72V22.933l2.38-1.37Zm17.446-16.5-5.662,3.26,5.662,3.26,5.662-3.26-5.662-3.26Zm-.566,7.5L23.9,10.675l-2.379-1.37v6.454l3.285,1.89,2.38,1.371V12.567ZM14.158,27.109l8.306-4.742L26.616,20,20.958,16.74l-6.515,3.751L8.505,23.91Z" fill="#fff" fill-rule="evenodd"/>
          </g>
        </g>
      </g>
    </g>
    <g id="Group_43356" data-name="Group 43356" transform="translate(-76 -40)">
      <g id="Group_41560-3" data-name="Group 41560" transform="translate(-2047.722 8801.748)">
        <ellipse id="Ellipse_295-3" data-name="Ellipse 295" cx="69" cy="68.5" rx="69" ry="68.5" transform="translate(-0.278 0.251)" fill="#fff"/>
        <g id="Group_41579-3" data-name="Group 41579" transform="translate(23.507 47.829) rotate(-21)">
          <g id="Group_14-5" data-name="Group 14" transform="translate(0 0)">
            <path id="Path_4487-5" data-name="Path 4487" d="M69.391,16.168a1.11,1.11,0,0,1,.038.293V31.8a1.122,1.122,0,0,1-.562.971L55.991,40.188v14.7a1.114,1.114,0,0,1-.56.968L28.551,71.327a1.47,1.47,0,0,1-.194.081c-.026.009-.049.023-.075.029a1.135,1.135,0,0,1-.574,0,.85.85,0,0,1-.087-.035,1.313,1.313,0,0,1-.186-.075L.562,55.852A1.113,1.113,0,0,1,0,54.883V8.856a1.215,1.215,0,0,1,.038-.293c.009-.032.029-.064.041-.1a1.277,1.277,0,0,1,.069-.174,1.2,1.2,0,0,1,.078-.1,1.071,1.071,0,0,1,.1-.127.8.8,0,0,1,.11-.087,1.267,1.267,0,0,1,.122-.1h0L14,.15a1.119,1.119,0,0,1,1.119,0L28.554,7.885h0c.043.029.081.064.122.1a1.1,1.1,0,0,1,.11.084c.038.04.067.087.1.13s.055.064.075.1a1.461,1.461,0,0,1,.073.174c.012.032.029.064.038.1a1.119,1.119,0,0,1,.041.293V37.6l11.2-6.448v-14.7a1.113,1.113,0,0,1,.041-.293c.009-.032.026-.061.038-.093a1.387,1.387,0,0,1,.072-.174c.023-.038.052-.067.075-.1a1.531,1.531,0,0,1,.1-.128.794.794,0,0,1,.11-.084.755.755,0,0,1,.122-.1h0L54.313,7.754a1.118,1.118,0,0,1,1.119,0L68.87,15.492a.977.977,0,0,1,.125.093c.035.029.075.055.107.084a1.07,1.07,0,0,1,.1.131.607.607,0,0,1,.075.1.847.847,0,0,1,.073.174.646.646,0,0,1,.041.093Zm-2.2,14.989V18.4l-4.7,2.708-6.5,3.74V37.6l11.2-6.448ZM53.753,54.234V41.469l-6.393,3.65L29.113,55.533V68.419l24.64-14.186ZM2.238,10.793V54.234L26.875,68.416V55.533L14,48.25l0,0-.006,0a.877.877,0,0,1-.119-.093.946.946,0,0,1-.107-.081l0,0a1.31,1.31,0,0,1-.093-.119c-.029-.038-.061-.07-.084-.107v-.006a.988.988,0,0,1-.061-.139.958.958,0,0,1-.052-.125v0a1.007,1.007,0,0,1-.023-.163c0-.043-.014-.084-.014-.128V17.241L6.941,13.5l-4.7-2.7ZM14.56,2.411,3.363,8.856,14.554,15.3l11.2-6.448-11.2-6.442Zm5.821,40.22,6.494-3.737v-28.1l-4.7,2.708-6.5,3.74v28.1l4.705-2.708ZM54.872,10.016,43.679,16.461l11.194,6.445,11.194-6.445L54.872,10.016ZM53.753,24.845l-6.5-3.74-4.7-2.708V31.157l6.494,3.737L53.753,37.6V24.845ZM27.991,53.6,44.412,44.22l8.207-4.682L41.435,33.1,28.554,40.512,16.815,47.27Z" transform="translate(0 0)" fill="#db1f0d" fill-rule="evenodd"/>
          </g>
        </g>
      </g>
      <g id="Group_41559-3" data-name="Group 41559" transform="translate(-2185.722 8801.748)">
        <ellipse id="Ellipse_296-3" data-name="Ellipse 296" cx="69" cy="68.5" rx="69" ry="68.5" transform="translate(-0.278 0.251)" fill="#563d7c"/>
        <path id="Path_12597-3" data-name="Path 12597" d="M12.964,23.864V10.074H25.1a18.9,18.9,0,0,1,3.344.289A8.355,8.355,0,0,1,31.3,11.4a5.5,5.5,0,0,1,1.982,2.064,6.855,6.855,0,0,1,.743,3.386q0,3.716-2.23,5.367a9.318,9.318,0,0,1-5.7,1.652ZM0,0V58.958H28.571a30.144,30.144,0,0,0,7.721-.991,20.649,20.649,0,0,0,6.689-3.055,15.049,15.049,0,0,0,4.665-5.326,16.228,16.228,0,0,0,1.734-7.721A16.337,16.337,0,0,0,46.7,32.411a14.171,14.171,0,0,0-8.134-5.491,14.691,14.691,0,0,0,5.987-4.872,12.913,12.913,0,0,0,2.023-7.432A15.814,15.814,0,0,0,45.21,7.679a11.329,11.329,0,0,0-3.84-4.5A16.578,16.578,0,0,0,35.425.743,36.717,36.717,0,0,0,27.745,0ZM12.964,48.884V32.7h14.12a10.926,10.926,0,0,1,6.771,1.941q2.56,1.94,2.56,6.482a8.1,8.1,0,0,1-.784,3.8,6.231,6.231,0,0,1-2.106,2.353,8.917,8.917,0,0,1-3.055,1.239,17.306,17.306,0,0,1-3.633.371Z" transform="matrix(0.966, -0.259, 0.259, 0.966, 37.244, 44.555)" fill="#fff"/>
      </g>
      <g id="Group_41565-3" data-name="Group 41565" transform="translate(-1358.722 8801.748)">
        <ellipse id="Ellipse_301-3" data-name="Ellipse 301" cx="69" cy="68.5" rx="69" ry="68.5" transform="translate(-0.278 0.251)" fill="#fff"/>
        <path id="Path_12598-3" data-name="Path 12598" d="M35.373,0A35.374,35.374,0,0,0,24.189,68.933c1.767.327,2.416-.768,2.416-1.7,0-.844-.031-3.63-.048-6.585-9.84,2.139-11.917-4.175-11.917-4.175-1.609-4.087-3.926-5.174-3.926-5.174-3.209-2.2.243-2.151.243-2.151,3.551.248,5.422,3.647,5.422,3.647,3.153,5.405,8.273,3.842,10.291,2.938A7.534,7.534,0,0,1,28.917,51C21.059,50.109,12.8,47.075,12.8,33.521a13.677,13.677,0,0,1,3.644-9.492,12.713,12.713,0,0,1,.342-9.36s2.969-.951,9.729,3.624a33.529,33.529,0,0,1,17.715,0c6.752-4.575,9.718-3.624,9.718-3.624a12.7,12.7,0,0,1,.347,9.36,13.66,13.66,0,0,1,3.638,9.492c0,13.585-8.276,16.577-16.151,17.452,1.27,1.1,2.4,3.252,2.4,6.551,0,4.733-.04,8.541-.04,9.707,0,.94.635,2.044,2.427,1.7A35.374,35.374,0,0,0,35.373,0ZM26.36,57.284c.051.282-.243.576-.661.652s-.79-.1-.841-.381.246-.584.655-.661.793.1.847.39Zm-2.7.457c.011.291-.327.534-.748.539s-.765-.229-.771-.514.333-.534.754-.542.765.226.765.516Zm-2.893-.212c-.085.277-.483.4-.883.285s-.663-.446-.581-.726.483-.409.886-.285.661.443.579.725Zm-2.636-1.143c-.192.214-.607.155-.909-.136a.678.678,0,0,1-.2-.9c.195-.214.613-.155.917.136s.4.691.192.9Zm-1.911-1.967c-.217.149-.57.008-.79-.3s-.214-.694.006-.844.567-.014.79.3.217.7-.006.852ZM14.83,52.381c-.169.155-.5.085-.723-.164a.538.538,0,0,1-.1-.734c.172-.158.491-.085.725.161s.274.579.1.737Zm-1.434-1.6c-.076.175-.353.229-.6.107s-.4-.356-.319-.531.353-.231.61-.11.4.356.313.533Z" transform="matrix(0.966, 0.259, -0.259, 0.966, 43.485, 26.276)" fill="#141312" fill-rule="evenodd"/>
      </g>
      <g id="Group_41564-3" data-name="Group 41564" transform="translate(-1496.722 8802.025)">
        <circle id="Ellipse_299-3" data-name="Ellipse 299" cx="69" cy="69" r="69" transform="translate(-0.278 -0.026)" fill="#fff"/>
        <g id="Group_41576-3" data-name="Group 41576" transform="matrix(0.966, -0.259, 0.259, 0.966, 25.068, 35.309)">
          <path id="Path_4463-3" data-name="Path 4463" d="M0,0H65.5L59.641,66.956l-26.71,7.685L5.489,66.956Z" transform="translate(0 18.258)" fill="#313130" fill-rule="evenodd"/>
          <path id="Path_4464-3" data-name="Path 4464" d="M0,0V61.68l22.062-6.348L26.9,0Z" transform="translate(32.949 24.738)" fill="#313130" fill-rule="evenodd"/>
          <path id="Path_4465-3" data-name="Path 4465" d="M9.863,0H0V12.624l8.765-1.645Z" transform="translate(32.949 56.675)" fill="#313130" fill-rule="evenodd"/>
          <path id="Path_4466-3" data-name="Path 4466" d="M0,0,1.1,8.062,20.856,8.05,1.463,16.465l1.1,7.682H21.24V0Z" transform="translate(11.71 32.528)" fill="#313130" fill-rule="evenodd"/>
          <path id="Path_4467-3" data-name="Path 4467" d="M8.782,6.222,8.05,0H0L1.1,12.808l17.2,4.754.018-.007V8.232Z" transform="translate(14.638 61.07)" fill="#313130" fill-rule="evenodd"/>
          <path id="Path_4468-3" data-name="Path 4468" d="M18.645,15.782H1.022l19.13-7.827V0H0V24.149H9.863l-1.1,10.977L0,36.771V46.1l16.448-5.116Z" transform="translate(32.949 32.528)" fill="#313130" fill-rule="evenodd"/>
          <path id="Path_4469-3" data-name="Path 4469" d="M0,0V12.529H10.318V8.477h-5.9V4.244h5.9V0Z" transform="translate(13.302 0)" fill="#313130" fill-rule="evenodd"/>
          <path id="Path_4470-3" data-name="Path 4470" d="M0,0V3.389L3.594,8.477H.278v4.053h9.948V8.665L6.911,4.422h3.316V0Z" transform="translate(27.764 0)" fill="#313130" fill-rule="evenodd"/>
          <path id="Path_4471-3" data-name="Path 4471" d="M0,0V3.389L3.593,8.477H.277v4.053h9.948V8.665L6.91,4.422h3.315V0Z" transform="translate(41.969 0)" fill="#313130" fill-rule="evenodd"/>
          <path id="Path_4472-3" data-name="Path 4472" d="M0,0H65.5L59.641,66.956l-26.71,7.685L5.489,66.956Z" transform="translate(0 18.258)" fill="#006eb1" fill-rule="evenodd"/>
          <path id="Path_4473-3" data-name="Path 4473" d="M0,0V61.68l22.062-6.348L26.9,0Z" transform="translate(32.949 24.738)" fill="#007dbd" fill-rule="evenodd"/>
          <path id="Path_4474-3" data-name="Path 4474" d="M9.863,0H0V12.622l8.765-1.645Z" transform="translate(32.949 56.677)" fill="#007aaf" fill-rule="evenodd"/>
          <path id="Path_4475-3" data-name="Path 4475" d="M0,0,1.1,8.062,20.856,8.05,1.463,16.465l1.1,7.684H21.24V0Z" transform="translate(11.71 32.528)" fill="#e8e8e8" fill-rule="evenodd"/>
          <path id="Path_4476-3" data-name="Path 4476" d="M8.782,6.222,8.05,0H0L1.1,12.808l17.2,4.754.018-.007V8.232Z" transform="translate(14.638 61.07)" fill="#ececec" fill-rule="evenodd"/>
          <path id="Path_4477-3" data-name="Path 4477" d="M18.645,15.782H1.022l19.13-7.827V0H0V24.149H9.863l-1.1,10.977L0,36.771V46.1l16.448-5.116Z" transform="translate(32.949 32.528)" fill="#fff" fill-rule="evenodd"/>
          <path id="Path_4478-3" data-name="Path 4478" d="M0,0V12.529H10.318V8.477h-5.9V4.244h5.9V0Z" transform="translate(13.302 0)" fill="#111" fill-rule="evenodd"/>
          <path id="Path_4479-3" data-name="Path 4479" d="M0,0V3.389L3.594,8.477H.278v4.053h9.948V8.665L6.911,4.422h3.316V0Z" transform="translate(27.764 0)" fill="#111" fill-rule="evenodd"/>
          <path id="Path_4480-3" data-name="Path 4480" d="M0,0V3.389L3.593,8.477H.277v4.053h9.948V8.665L6.91,4.422h3.315V0Z" transform="translate(41.969 0)" fill="#111" fill-rule="evenodd"/>
        </g>
      </g>
      <g id="Group_41563-3" data-name="Group 41563" transform="translate(-1634.722 8802.025)">
        <circle id="Ellipse_300-3" data-name="Ellipse 300" cx="69" cy="69" r="69" transform="translate(-0.278 -0.026)" fill="#fff"/>
        <g id="Group_41577-3" data-name="Group 41577" transform="translate(56.988 24.818) rotate(21)">
          <path id="Path_4481-3" data-name="Path 4481" d="M54.556,0H0L5.112,55.46l22.166,6.284L49.437,55.46Z" transform="translate(0 14.892)" fill="#e13506" fill-rule="evenodd"/>
          <path id="Path_4482-3" data-name="Path 4482" d="M0,0V52.53l17.95-5.088L22.321,0Z" transform="translate(27.278 19.41)" fill="#eb4a08" fill-rule="evenodd"/>
          <path id="Path_4483-3" data-name="Path 4483" d="M0,0H3.41V3.124H6.723V0h3.41V10.018H6.723V6.534H3.41v3.483H0V0ZM26.278,0h.459l1.99,3.4L30.719,0h3.9V10.018H31.2V4.965h-.024l-2.431,3.59v.061l-.021-.03-.018.03V8.554l-2.431-3.59v5.053h-3.41V0h3.41Zm18.4,6.6v3.413H36.375V0h3.41V6.6ZM21.477,0V3.41h-3.3v6.607h-3.41V3.41h-3.3V0H21.477Z" transform="translate(4.937 0)" fill="#111" fill-rule="evenodd"/>
          <path id="Path_4484-3" data-name="Path 4484" d="M34.249,0H0L1.778,20.766l.041-.13H25.27l-.765,8.784-7.481,2.157L9.431,29.388l-.456-5.316H2.08l.985,10.623,13.96,3.964,13.961-3.964,1.921-20.847H8.022L7.406,6.9H33.76Z" transform="translate(10.253 26.43)" fill="#e8e8e8" fill-rule="evenodd"/>
          <path id="Path_4485-3" data-name="Path 4485" d="M17.224,0H0V6.9H16.735l.49-6.9ZM0,20.635H8.244L7.48,29.42,0,31.577v7.082L13.96,34.7l1.923-20.848H0Z" transform="translate(27.278 26.43)" fill="#fff" fill-rule="evenodd"/>
        </g>
      </g>
      <g id="Group_41561-3" data-name="Group 41561" transform="translate(-1910 8802.025)">
        <ellipse id="Ellipse_302-3" data-name="Ellipse 302" cx="68.5" cy="69" rx="68.5" ry="69" transform="translate(0 -0.026)" fill="#fff"/>
        <g id="Group_41575-3" data-name="Group 41575" transform="matrix(0.966, 0.259, -0.259, 0.966, 48.275, 17.086)">
          <g id="Group_9-3" data-name="Group 9">
            <path id="Path_4457-3" data-name="Path 4457" d="M64.851,0H0L6.077,65.925l26.349,7.47,26.34-7.47Z" transform="translate(0 17.891)" fill="#e79200" fill-rule="evenodd"/>
            <path id="Path_4458-3" data-name="Path 4458" d="M0,0V62.442l21.337-6.049L26.532,0Z" transform="translate(32.425 23.261)" fill="#f7b100" fill-rule="evenodd"/>
            <path id="Path_4459-3" data-name="Path 4459" d="M35.1,0H2.282L0,24.683l.049-.155H27.925L27.016,34.97l-8.892,2.564L9.1,34.932l-.543-6.319H.358L1.529,41.24l16.595,4.713L34.719,41.24,37,16.459H7.422L7.8,8.2H28.33l.3,4.73H36.9Z" transform="translate(14.302 31.351)" fill="#fff" fill-rule="evenodd"/>
            <g id="Group_7-3" data-name="Group 7" transform="translate(14.303 31.353)">
              <path id="Path_4460-3" data-name="Path 4460" d="M18.121,0H2.282L0,24.68l.047-.152H18.121V16.457H8.563l.376-8.263h9.181V0ZM8.552,28.611H.354L1.526,41.239l16.595,4.7V37.532l-9.026-2.6Z" fill="#e8e8e8" fill-rule="evenodd"/>
            </g>
            <g id="Group_8-3" data-name="Group 8" transform="translate(20.349 0)">
              <path id="Path_4461-3" data-name="Path 4461" d="M5.767,8.166H0v4.141H9.9V0H5.767Z" fill="#111" fill-rule="evenodd"/>
              <path id="Path_4462-3" data-name="Path 4462" d="M10.06,0H0V4.31C1.345,5.655,2.047,6.3,3.992,8.248c-1.135,0-3.992,0-3.992,0v3.931H10.06V8.248L6.039,4.31H10.06Z" transform="translate(14.097 0.062)" fill="#111" fill-rule="evenodd"/>
            </g>
          </g>
        </g>
      </g>
      <g id="Group_43351-3" data-name="Group 43351" transform="translate(-105 -338)">
        <g id="Group_41562-3" data-name="Group 41562" transform="translate(-1667.722 9140.025)">
          <g id="Group_41374-3" data-name="Group 41374" transform="translate(0 0)">
            <circle id="Ellipse_298-3" data-name="Ellipse 298" cx="69" cy="69" r="69" transform="translate(-0.278 -0.026)" fill="#db1f0d"/>
          </g>
        </g>
        <g id="Group_41578-3" data-name="Group 41578" transform="matrix(0.966, 0.259, -0.259, 0.966, -1618.719, 9168.971)">
          <g id="Group_14-6" data-name="Group 14" transform="translate(0 0)">
            <path id="Path_4487-6" data-name="Path 4487" d="M69.391,16.168a1.11,1.11,0,0,1,.038.293V31.8a1.122,1.122,0,0,1-.562.971L55.991,40.188v14.7a1.114,1.114,0,0,1-.56.968L28.551,71.327a1.47,1.47,0,0,1-.194.081c-.026.009-.049.023-.075.029a1.135,1.135,0,0,1-.574,0,.85.85,0,0,1-.087-.035,1.313,1.313,0,0,1-.186-.075L.562,55.852A1.113,1.113,0,0,1,0,54.883V8.856a1.215,1.215,0,0,1,.038-.293c.009-.032.029-.064.041-.1a1.277,1.277,0,0,1,.069-.174,1.2,1.2,0,0,1,.078-.1,1.071,1.071,0,0,1,.1-.127.8.8,0,0,1,.11-.087,1.267,1.267,0,0,1,.122-.1h0L14,.15a1.119,1.119,0,0,1,1.119,0L28.554,7.885h0c.043.029.081.064.122.1a1.1,1.1,0,0,1,.11.084c.038.04.067.087.1.13s.055.064.075.1a1.461,1.461,0,0,1,.073.174c.012.032.029.064.038.1a1.119,1.119,0,0,1,.041.293V37.6l11.2-6.448v-14.7a1.113,1.113,0,0,1,.041-.293c.009-.032.026-.061.038-.093a1.387,1.387,0,0,1,.072-.174c.023-.038.052-.067.075-.1a1.531,1.531,0,0,1,.1-.128.794.794,0,0,1,.11-.084.755.755,0,0,1,.122-.1h0L54.313,7.754a1.118,1.118,0,0,1,1.119,0L68.87,15.492a.977.977,0,0,1,.125.093c.035.029.075.055.107.084a1.07,1.07,0,0,1,.1.131.607.607,0,0,1,.075.1.847.847,0,0,1,.073.174.646.646,0,0,1,.041.093Zm-2.2,14.989V18.4l-4.7,2.708-6.5,3.74V37.6l11.2-6.448ZM53.753,54.234V41.469l-6.393,3.65L29.113,55.533V68.419l24.64-14.186ZM2.238,10.793V54.234L26.875,68.416V55.533L14,48.25l0,0-.006,0a.877.877,0,0,1-.119-.093.946.946,0,0,1-.107-.081l0,0a1.31,1.31,0,0,1-.093-.119c-.029-.038-.061-.07-.084-.107v-.006a.988.988,0,0,1-.061-.139.958.958,0,0,1-.052-.125v0a1.007,1.007,0,0,1-.023-.163c0-.043-.014-.084-.014-.128V17.241L6.941,13.5l-4.7-2.7ZM14.56,2.411,3.363,8.856,14.554,15.3l11.2-6.448-11.2-6.442Zm5.821,40.22,6.494-3.737v-28.1l-4.7,2.708-6.5,3.74v28.1l4.705-2.708ZM54.872,10.016,43.679,16.461l11.194,6.445,11.194-6.445L54.872,10.016ZM53.753,24.845l-6.5-3.74-4.7-2.708V31.157l6.494,3.737L53.753,37.6V24.845ZM27.991,53.6,44.412,44.22l8.207-4.682L41.435,33.1,28.554,40.512,16.815,47.27Z" transform="translate(0 0)" fill="#fff" fill-rule="evenodd"/>
          </g>
        </g>
      </g>
    </g>
  </g>
</svg>
