<svg xmlns="http://www.w3.org/2000/svg" width="34.73" height="34.73" viewBox="0 0 34.73 34.73">
  <g id="modules" transform="matrix(1, 0, 0, 1, 0.1, 0.1)">
    <path id="Path_10913" data-name="Path 10913" d="M2.878,5.755A2.877,2.877,0,1,1,5.755,2.878,2.881,2.881,0,0,1,2.878,5.755Zm0-4.6A1.726,1.726,0,1,0,4.6,2.878,1.729,1.729,0,0,0,2.878,1.151Z" transform="translate(0 14.387)" fill="#61259e" stroke="#61259e" stroke-width="0.2"/>
    <path id="Path_10914" data-name="Path 10914" d="M2.878,5.755A2.877,2.877,0,1,1,5.755,2.878,2.881,2.881,0,0,1,2.878,5.755Zm0-4.6A1.726,1.726,0,1,0,4.6,2.878,1.729,1.729,0,0,0,2.878,1.151Z" transform="translate(28.775 14.387)" fill="#61259e" stroke="#61259e" stroke-width="0.2"/>
    <path id="Path_10915" data-name="Path 10915" d="M2.878,5.755A2.878,2.878,0,1,1,5.755,2.877,2.881,2.881,0,0,1,2.878,5.755Zm0-4.6A1.726,1.726,0,1,0,4.6,2.877,1.729,1.729,0,0,0,2.878,1.151Z" transform="translate(14.387 28.775)" fill="#61259e" stroke="#61259e" stroke-width="0.2"/>
    <path id="Path_10916" data-name="Path 10916" d="M2.878,5.755A2.878,2.878,0,1,1,5.755,2.878,2.881,2.881,0,0,1,2.878,5.755Zm0-4.6A1.726,1.726,0,1,0,4.6,2.878,1.729,1.729,0,0,0,2.878,1.151Z" transform="translate(14.387 0)" fill="#61259e" stroke="#61259e" stroke-width="0.2"/>
    <path id="Path_10917" data-name="Path 10917" d="M1.524,4.466a.576.576,0,0,1-.567-.485A13.747,13.747,0,0,0,.046.8.576.576,0,1,1,1.106.351,14.857,14.857,0,0,1,2.093,3.8a.575.575,0,0,1-.478.659.545.545,0,0,1-.092.007Z" transform="translate(29.945 11.091)" fill="#61259e" stroke="#61259e" stroke-width="0.2"/>
    <path id="Path_10918" data-name="Path 10918" d="M3.186,3.76a.575.575,0,0,1-.456-.224A13.9,13.9,0,0,0,.224,1.03a.575.575,0,1,1,.7-.91A15.043,15.043,0,0,1,3.641,2.833a.576.576,0,0,1-.455.927Z" transform="translate(25.471 5.294)" fill="#61259e" stroke="#61259e" stroke-width="0.2"/>
    <path id="Path_10919" data-name="Path 10919" d="M3.89,2.1a.57.57,0,0,1-.224-.045A13.745,13.745,0,0,0,.485,1.144.575.575,0,1,1,.666.008,14.878,14.878,0,0,1,4.114,1,.576.576,0,0,1,3.89,2.1Z" transform="translate(18.973 2.484)" fill="#61259e" stroke="#61259e" stroke-width="0.2"/>
    <path id="Path_10920" data-name="Path 10920" d="M.575,2.1A.576.576,0,0,1,.485.957,13.745,13.745,0,0,0,3.666.045a.576.576,0,1,1,.449,1.06,14.879,14.879,0,0,1-3.448.988A.567.567,0,0,1,.575,2.1Z" transform="translate(18.973 29.945)" fill="#61259e" stroke="#61259e" stroke-width="0.2"/>
    <path id="Path_10921" data-name="Path 10921" d="M.576,3.761A.575.575,0,0,1,.224,2.731,13.907,13.907,0,0,0,2.729.224a.575.575,0,1,1,.911.7A15.008,15.008,0,0,1,.927,3.641.572.572,0,0,1,.576,3.761Z" transform="translate(25.475 25.471)" fill="#61259e" stroke="#61259e" stroke-width="0.2"/>
    <path id="Path_10922" data-name="Path 10922" d="M.575,4.465a.575.575,0,0,1-.529-.8A13.727,13.727,0,0,0,.957.485.575.575,0,0,1,2.094.667a14.877,14.877,0,0,1-.988,3.448.576.576,0,0,1-.531.351Z" transform="translate(29.945 18.973)" fill="#61259e" stroke="#61259e" stroke-width="0.2"/>
    <path id="Path_10923" data-name="Path 10923" d="M1.525,4.465a.575.575,0,0,1-.53-.351A14.857,14.857,0,0,1,.007.667.575.575,0,1,1,1.144.485a13.747,13.747,0,0,0,.911,3.18.575.575,0,0,1-.306.754A.586.586,0,0,1,1.525,4.465Z" transform="translate(2.485 18.973)" fill="#61259e" stroke="#61259e" stroke-width="0.2"/>
    <path id="Path_10924" data-name="Path 10924" d="M3.185,3.76a.572.572,0,0,1-.352-.12A15.043,15.043,0,0,1,.12.927a.575.575,0,0,1,.911-.7A13.9,13.9,0,0,0,3.537,2.73.575.575,0,0,1,3.185,3.76Z" transform="translate(5.298 25.476)" fill="#61259e" stroke="#61259e" stroke-width="0.2"/>
    <path id="Path_10925" data-name="Path 10925" d="M3.891,2.1A.556.556,0,0,1,3.8,2.094,14.879,14.879,0,0,1,.351,1.106.576.576,0,1,1,.8.045,13.745,13.745,0,0,0,3.981.957.576.576,0,0,1,3.891,2.1Z" transform="translate(11.091 29.945)" fill="#61259e" stroke="#61259e" stroke-width="0.2"/>
    <path id="Path_10926" data-name="Path 10926" d="M.576,2.1A.576.576,0,0,1,.351,1,14.879,14.879,0,0,1,3.8.008.575.575,0,1,1,3.98,1.144,13.745,13.745,0,0,0,.8,2.056.583.583,0,0,1,.576,2.1Z" transform="translate(11.092 2.484)" fill="#61259e" stroke="#61259e" stroke-width="0.2"/>
    <path id="Path_10927" data-name="Path 10927" d="M.575,3.761A.575.575,0,0,1,.12,2.834,15.009,15.009,0,0,1,2.833.12a.575.575,0,1,1,.7.91A13.907,13.907,0,0,0,1.031,3.537.575.575,0,0,1,.575,3.761Z" transform="translate(5.294 5.298)" fill="#61259e" stroke="#61259e" stroke-width="0.2"/>
    <path id="Path_10928" data-name="Path 10928" d="M.576,4.466a.55.55,0,0,1-.092-.007A.576.576,0,0,1,.007,3.8,14.877,14.877,0,0,1,.995.351.576.576,0,0,1,2.055.8a13.727,13.727,0,0,0-.911,3.18A.575.575,0,0,1,.576,4.466Z" transform="translate(2.484 11.091)" fill="#61259e" stroke="#61259e" stroke-width="0.2"/>
    <path id="Path_10929" data-name="Path 10929" d="M5.179,8.057A.578.578,0,0,1,4.922,8l-4.6-2.3A.576.576,0,0,1,0,5.18V.576A.575.575,0,0,1,.833.061l4.6,2.3a.576.576,0,0,1,.318.515v4.6a.575.575,0,0,1-.576.576ZM1.151,4.824,4.6,6.551V3.234L1.151,1.507Z" transform="translate(7.481 11.51)" fill="#61259e" stroke="#61259e" stroke-width="0.2"/>
    <path id="Path_10930" data-name="Path 10930" d="M.576,8.057A.575.575,0,0,1,0,7.482v-4.6a.576.576,0,0,1,.318-.515l4.6-2.3a.575.575,0,0,1,.833.515v4.6a.576.576,0,0,1-.318.515L.833,8A.578.578,0,0,1,.576,8.057Zm.576-4.824V6.551L4.6,4.824V1.507Z" transform="translate(12.085 11.51)" fill="#61259e" stroke="#61259e" stroke-width="0.2"/>
    <path id="Path_10931" data-name="Path 10931" d="M5.179,5.755a.576.576,0,0,1-.257-.06l-4.6-2.3a.576.576,0,0,1,0-1.03l4.6-2.3a.575.575,0,0,1,.515,0l4.6,2.3a.576.576,0,0,1,0,1.03l-4.6,2.3A.582.582,0,0,1,5.179,5.755ZM1.862,2.878,5.179,4.537,8.5,2.878,5.179,1.219Z" transform="translate(7.481 9.208)" fill="#61259e" stroke="#61259e" stroke-width="0.2"/>
    <path id="Path_10932" data-name="Path 10932" d="M5.18,8.057A.578.578,0,0,1,4.922,8l-4.6-2.3A.576.576,0,0,1,0,5.18V.576A.575.575,0,0,1,.833.061l4.6,2.3a.576.576,0,0,1,.318.515v4.6a.575.575,0,0,1-.576.576ZM1.151,4.824,4.6,6.551V3.234L1.151,1.507Z" transform="translate(16.69 11.51)" fill="#61259e" stroke="#61259e" stroke-width="0.2"/>
    <path id="Path_10933" data-name="Path 10933" d="M.575,8.057A.575.575,0,0,1,0,7.482v-4.6a.576.576,0,0,1,.318-.515l4.6-2.3a.575.575,0,0,1,.833.515v4.6a.576.576,0,0,1-.318.515L.833,8A.578.578,0,0,1,.575,8.057Zm.576-4.824V6.551L4.6,4.824V1.507Z" transform="translate(21.293 11.51)" fill="#61259e" stroke="#61259e" stroke-width="0.2"/>
    <path id="Path_10934" data-name="Path 10934" d="M5.18,5.755a.576.576,0,0,1-.257-.06l-4.6-2.3a.576.576,0,0,1,0-1.03l4.6-2.3a.575.575,0,0,1,.515,0l4.6,2.3a.576.576,0,0,1,0,1.03l-4.6,2.3A.582.582,0,0,1,5.18,5.755ZM1.862,2.878,5.18,4.537,8.5,2.878,5.18,1.219Z" transform="translate(16.69 9.208)" fill="#61259e" stroke="#61259e" stroke-width="0.2"/>
    <path id="Path_10935" data-name="Path 10935" d="M5.18,8.057A.578.578,0,0,1,4.922,8l-4.6-2.3A.576.576,0,0,1,0,5.18V.576A.575.575,0,0,1,.833.061l4.6,2.3a.576.576,0,0,1,.318.515v4.6a.575.575,0,0,1-.576.576ZM1.151,4.824,4.6,6.551V3.234L1.151,1.507Z" transform="translate(12.085 18.416)" fill="#61259e" stroke="#61259e" stroke-width="0.2"/>
    <path id="Path_10936" data-name="Path 10936" d="M.576,8.057A.575.575,0,0,1,0,7.482v-4.6a.576.576,0,0,1,.318-.515l4.6-2.3a.575.575,0,0,1,.833.515v4.6a.576.576,0,0,1-.318.515L.833,8a.578.578,0,0,1-.257.06Zm.575-4.824V6.551L4.6,4.824V1.507Z" transform="translate(16.69 18.416)" fill="#61259e" stroke="#61259e" stroke-width="0.2"/>
    <path id="Path_10937" data-name="Path 10937" d="M5.18,5.755a.576.576,0,0,1-.257-.06l-4.6-2.3a.576.576,0,0,1,0-1.03l4.6-2.3a.575.575,0,0,1,.515,0l4.6,2.3a.576.576,0,0,1,0,1.03l-4.6,2.3A.582.582,0,0,1,5.18,5.755ZM1.862,2.878,5.18,4.537,8.5,2.878,5.179,1.219Z" transform="translate(12.085 16.114)" fill="#61259e" stroke="#61259e" stroke-width="0.2"/>
  </g>
</svg>
