<svg xmlns="http://www.w3.org/2000/svg" width="40.571" height="34.341" viewBox="0 0 40.571 34.341">
  <path id="Path_11641" data-name="Path 11641" d="M21.084,72.543a.8.8,0,1,1-.8-.8A.8.8,0,0,1,21.084,72.543ZM6.359,52.9a.8.8,0,1,0,0,1.6H7.986V62.48a.8.8,0,0,0,1.6,0V54.494h1.627a.8.8,0,1,0,0-1.6Zm27.663-6.229a3.354,3.354,0,1,1-3.354,3.354A3.358,3.358,0,0,1,34.022,46.667Zm-1.757,3.354a1.757,1.757,0,1,0,1.757-1.757A1.759,1.759,0,0,0,32.265,50.021Zm-.479,23.32H23.879a.8.8,0,0,1-.8-.852.817.817,0,0,1,.825-.745h7.08v-1.6h-5.91a2.4,2.4,0,0,1-2.4-2.4V65.674a2.4,2.4,0,0,1,2.4-2.4h5.91V59.924H19.966a.8.8,0,0,1-.8-.8V44.271a.8.8,0,0,1,.8-.8H30.987V41.4a.8.8,0,0,0-.8-.8H10.382a.8.8,0,0,0-.8.8V49.3h7.188a.8.8,0,0,1,.8.8V66.074a.8.8,0,0,1-.8.8H9.584v4.872h7.08a.817.817,0,0,1,.825.745.8.8,0,0,1-.8.852H8.785a.8.8,0,0,1-.8-.8v-5.67H.8a.8.8,0,0,1-.8-.8V50.1a.8.8,0,0,1,.8-.8H7.986V41.4a2.4,2.4,0,0,1,2.4-2.4H30.189a2.4,2.4,0,0,1,2.4,2.4v2.076h7.188a.8.8,0,0,1,.8.8V59.126a.8.8,0,0,1-.8.8H32.584v3.354h2.076a2.4,2.4,0,0,1,2.4,2.4v2.076a2.4,2.4,0,0,1-2.4,2.4H32.584v2.4A.8.8,0,0,1,31.786,73.341ZM15.973,50.9H1.6V65.275H15.973ZM34.661,64.876H25.077a.8.8,0,0,0-.8.8v2.076a.8.8,0,0,0,.8.8h9.584a.8.8,0,0,0,.8-.8V65.674A.8.8,0,0,0,34.661,64.876Zm-13.9-6.549H33.135l-7.373-6.892a2.4,2.4,0,0,0-3.272,0l-1.725,1.613ZM38.974,45.07H20.765v5.792l.635-.593a4,4,0,0,1,5.454,0l8.621,8.059h3.5Z" transform="translate(0 -39)" fill="#61259e"/>
</svg>
